<svg xmlns="http://www.w3.org/2000/svg" width="155" height="57" viewBox="0 0 155 57"><g fill="none" fill-rule="evenodd" transform="translate(2 2)"><path fill="#231F20" d="M14.76044,17.78966 L15.45154,17.81576 C16.28824,17.89976 17.01604,18.06646 17.78604,18.41346 L18.25804,18.67376 C18.87164,19.07586 19.31514,19.50826 19.73004,20.11556 L19.99534,20.58236 C20.35304,21.34536 20.52314,22.06826 20.61294,22.90976 C20.64694,23.50046 20.63874,24.05686 20.57754,24.64486 L20.47144,25.27286 C20.28914,26.03166 20.03744,26.65406 19.59394,27.29446 L19.27014,27.68966 C18.75054,28.22256 18.22264,28.56826 17.54654,28.86706 L17.00104,29.05856 C16.11264,29.30366 15.27734,29.37666 14.35774,29.36146 L13.67074,29.30906 C12.85314,29.19896 12.14574,29.01166 11.40434,28.64126 L10.95404,28.36996 C10.37314,27.94856 9.96634,27.50926 9.59084,26.89366 L9.35144,26.41586 C9.03174,25.62676 8.89574,24.88306 8.84674,24.03346 C8.83454,23.43576 8.86444,22.87666 8.94874,22.28726 L9.07934,21.66616 C9.29564,20.91566 9.57324,20.30976 10.04794,19.68866 L10.39354,19.30716 C10.94724,18.79076 11.50224,18.46576 12.20424,18.19306 C12.71034,18.02646 13.18914,17.92176 13.71424,17.85016 C14.06394,17.81436 14.40674,17.79656 14.76044,17.78966 Z M14.44214,12.39126 C13.66934,12.40366 12.91574,12.44086 12.14434,12.50696 C11.41384,12.59786 10.70774,12.70946 9.98944,12.85536 C9.30924,13.01786 8.66034,13.20106 7.99649,13.41996 L6.76669,13.91576 L5.61987,14.50236 L4.56283,15.18266 L3.59966,15.94696 L2.7358,16.79396 L1.98078,17.72486 L1.33731,18.72876 L0.81355,19.80426 L0.41632,20.94316 L0.14831,22.13576 L0.01092,23.37926 L0,24.33636 C0.03806,25.29616 0.17549,26.18166 0.43261,27.10576 C0.5278,27.40046 0.62578,27.68956 0.73598,27.97876 C1.18083,29.05156 1.73996,29.97006 2.4773,30.86526 L2.89766,31.33206 C3.78601,32.24366 4.74781,32.98046 5.84703,33.61396 C6.20753,33.80676 6.56668,33.98846 6.93807,34.15786 C8.23046,34.70736 9.52284,35.04886 10.90774,35.25956 C13.57824,35.61766 16.33164,35.53496 18.96404,34.96076 C19.87284,34.74456 20.73254,34.47326 21.59774,34.11936 L22.20724,33.84256 C23.36634,33.26556 24.40154,32.58656 25.35384,31.69836 C25.91704,31.14336 26.40274,30.56636 26.85444,29.91366 C27.29514,29.24436 27.65434,28.57236 27.96314,27.83286 C28.07064,27.55186 28.16994,27.27376 28.26244,26.99276 C28.55084,26.01096 28.70184,25.07176 28.71814,24.04716 C28.71004,23.30766 28.64604,22.60666 28.51814,21.87956 C28.37664,21.17726 28.18624,20.52176 27.93044,19.85106 C27.66244,19.19976 27.35364,18.59936 26.98224,18.00436 C26.59454,17.41776 26.17694,16.89166 25.69944,16.38076 C25.18244,15.85746 24.64784,15.40576 24.05604,14.97616 C23.42484,14.54096 22.79224,14.17466 22.10254,13.84416 C21.49304,13.57006 20.88764,13.34146 20.24964,13.14316 C19.22384,12.84576 18.20764,12.65436 17.14924,12.52906 C16.24324,12.43816 15.35084,12.39676 14.44214,12.39126 Z"/><path fill="#E02308" d="M91.06764,0 C84.36494,0.02479 80.34184,1.20842 78.24414,7.34481 L63.47964,44.57716 L105.70274,44.57716 C107.20574,55.29246 118.87374,56.79216 121.11874,44.57716 L135.40674,7.62522 C136.34174,4.5212 136.90274,2.19512 140.94874,0 L91.06764,0 Z M144.49374,0.39539 C140.46574,0.39539 137.14874,3.72172 137.17474,7.80071 L151.81374,7.80071 C151.78874,3.72172 148.52674,0.39539 144.49374,0.39539 Z M46.253446,45.88846 C46.19824,50.42046 50.08384,53.87346 53.72294,53.75366 L109.56874,53.75366 C106.27774,52.80896 104.14874,48.51046 104.14874,45.88846 L46.253446,45.88846 Z"/><path fill="#FFF" d="M14.76054,16.70076 C18.99554,16.70076 21.71494,19.28016 21.71494,23.61246 C21.71494,27.94346 19.03764,30.45946 14.71974,30.45946 C10.40314,30.45846 7.76399,27.97796 7.76399,23.67726 C7.76399,19.24566 10.44264,16.70076 14.76054,16.70076 Z M14.44904,13.48116 C6.37775,13.48116 1.0708,17.78186 1.0708,24.01596 C1.0708,27.11996 2.43393,29.81226 4.97653,31.74436 C7.33683,33.55796 10.28484,34.38146 14.04224,34.38146 C18.24594,34.38146 21.56124,33.41066 24.03174,31.42206 C26.16894,29.69386 27.64224,26.88586 27.64224,24.04626 C27.64224,20.97256 26.35254,18.25146 24.14324,16.40746 C21.70954,14.38866 18.61324,13.48116 14.44904,13.48116 Z"/><path fill="#231F20" d="M42.04584,18.74316 C42.62814,18.76796 43.10154,18.85886 43.51104,19.30226 C43.83754,19.73746 43.88644,20.20566 43.65524,20.70006 C43.28794,21.31286 42.70834,21.43546 42.04044,21.46576 L34.02764,21.46576 L34.02764,18.74316 L42.04584,18.74316 Z M47.84664,25.77466 L48.41114,25.55576 C49.42874,25.13026 50.31844,24.64136 51.13604,23.88396 C51.34284,23.67456 51.52924,23.46256 51.70884,23.22986 C52.00814,22.79736 52.21354,22.39806 52.39314,21.90506 C52.48154,21.59656 52.54414,21.30466 52.59304,20.98646 C52.65294,20.31306 52.61884,19.69476 52.51964,19.02686 C52.42704,18.59996 52.31824,18.21716 52.16994,17.80816 C51.99584,17.41426 51.81084,17.07136 51.58094,16.70786 C51.32514,16.36076 51.06804,16.06196 50.76464,15.75626 C50.43544,15.46156 50.11304,15.21086 49.74844,14.96166 C49.35394,14.72476 48.96894,14.51826 48.55264,14.32406 C48.09694,14.13816 47.65204,13.97566 47.18414,13.82826 C46.67254,13.68916 46.16924,13.57076 45.64824,13.46336 C44.66734,13.29536 43.70144,13.18796 42.70704,13.12046 C42.04174,13.08876 41.37924,13.07086 40.71264,13.06536 L26.11284,13.06536 L26.11284,34.34866 L33.97734,34.34866 L33.97734,26.80896 L38.72234,26.80896 L43.30554,34.39266 L52.91414,34.39266 L47.48064,25.90146 L47.84664,25.77466 Z"/><path fill="#FFF" d="M42.06844,17.65516 C45.80004,17.65516 45.82454,22.55216 42.06134,22.55216 L32.95074,22.55216 L32.95074,17.65516 L42.06844,17.65516 Z M27.18704,33.25916 L32.90204,33.25916 L32.90204,25.71946 L39.32454,25.71946 L43.90914,33.30326 L50.93424,33.30326 L45.79734,25.27606 C48.90864,24.42226 51.55464,23.19936 51.55464,20.33636 C51.55464,16.17056 47.93724,14.15456 40.70804,14.15456 L27.18704,14.15456 L27.18704,33.25916 Z"/><path fill="#231F20" d="M60.36104,20.35106 L62.83964,26.43376 L58.01974,26.43376 L60.36104,20.35106 Z M55.57504,13.20116 L46.99364,34.39346 L54.89484,34.39346 L55.96554,31.77426 L64.88704,31.81136 L65.93184,34.43616 L74.29694,34.43616 L65.42574,13.20116 L55.57504,13.20116 Z"/><path fill="#FFF" d="M60.33214,17.42266 L64.44734,27.52516 L56.44814,27.52516 L60.33214,17.42266 Z M56.29714,14.28976 L48.59864,33.30626 L54.17764,33.30626 L55.24694,30.68146 L65.61454,30.72556 L66.65804,33.34896 L72.67374,33.34896 L64.71124,14.28976 L56.29714,14.28976 Z"/><polygon fill="#231F20" points="69.375 13.006 69.375 34.433 77.687 34.433 77.843 25.687 88.559 25.687 88.695 20.524 77.81 20.524 77.846 18.465 92.805 18.465 92.931 13.006"/><polygon fill="#FFF" points="70.477 14.097 70.477 33.342 76.632 33.342 76.787 24.598 87.513 24.598 87.588 21.613 76.713 21.613 76.789 17.375 91.753 17.375 91.832 14.097"/><path fill="#231F20" d="M100.92774,17.78966 L101.61874,17.81576 C102.45874,17.89976 103.18474,18.06646 103.95574,18.41346 L104.42974,18.67376 C105.03874,19.07586 105.48274,19.50826 105.89874,20.11556 L106.16374,20.58246 C106.52474,21.34536 106.69474,22.06836 106.77874,22.90976 C106.81674,23.50056 106.80474,24.05686 106.74474,24.64486 L106.64074,25.27286 C106.45674,26.03166 106.20474,26.65406 105.76274,27.29446 L105.43774,27.68966 C104.91974,28.22266 104.39274,28.56826 103.71374,28.86706 L103.16874,29.05856 C102.27974,29.30366 101.44474,29.37666 100.52774,29.36146 L99.84274,29.30916 C99.02374,29.19896 98.31464,29.01166 97.57054,28.64126 L97.12434,28.36996 C96.54344,27.94856 96.13524,27.50926 95.75984,26.89366 L95.52174,26.41586 C95.19934,25.62676 95.06604,24.88306 95.01434,24.03346 C95.00514,23.43576 95.03194,22.87666 95.11764,22.28726 L95.24694,21.66616 C95.46324,20.91566 95.74344,20.30976 96.21554,19.68866 L96.56244,19.30716 C97.11474,18.79076 97.66984,18.46576 98.37314,18.19306 C98.87774,18.02646 99.35674,17.92176 99.88274,17.85016 C100.23674,17.81436 100.57574,17.79656 100.92774,17.78966 Z M100.61274,12.39126 C99.83974,12.40366 99.08374,12.44086 98.31324,12.50696 C97.58414,12.59786 96.87804,12.70946 96.15844,12.85536 C95.47954,13.01786 94.82794,13.20106 94.16674,13.41996 L92.93564,13.91576 L91.79014,14.50236 L90.73174,15.18266 L89.76724,15.94696 L88.90474,16.79396 L88.14974,17.72486 L87.50624,18.72876 L86.98384,19.80426 L86.58524,20.94316 L86.31724,22.13576 L86.18124,23.37926 L86.16894,24.33636 C86.20974,25.29616 86.34304,26.18166 86.60154,27.10576 C86.69544,27.40046 86.79474,27.68956 86.90354,27.97876 C87.34974,29.05156 87.90894,29.97006 88.64624,30.86526 L89.06664,31.33206 C89.95364,32.24366 90.91944,32.98046 92.01734,33.61396 C92.37514,33.80676 92.73424,33.98846 93.10564,34.15786 C94.39804,34.70736 95.69314,35.04886 97.07534,35.25956 C99.74674,35.61766 102.50174,35.53496 105.13474,34.96076 C106.04074,34.74456 106.90274,34.47326 107.76674,34.11936 L108.37574,33.84256 C109.53574,33.26556 110.57174,32.58656 111.52174,31.69836 C112.08774,31.14336 112.57074,30.56636 113.02374,29.91366 C113.46374,29.24436 113.82374,28.57236 114.13174,27.83286 C114.23974,27.55186 114.33774,27.27376 114.43274,26.99276 C114.72074,26.01096 114.87174,25.07176 114.88974,24.04716 C114.87774,23.30766 114.81474,22.60666 114.68674,21.87956 C114.54574,21.17726 114.35474,20.52176 114.10174,19.85106 C113.83174,19.19976 113.52574,18.59936 113.15274,18.00436 C112.76074,17.41776 112.34574,16.89166 111.86674,16.38076 C111.35274,15.85746 110.81574,15.40576 110.22474,14.97616 C109.59674,14.54096 108.96074,14.17466 108.27274,13.84416 C107.66474,13.57016 107.05574,13.34146 106.41974,13.14316 C105.39374,12.84576 104.37674,12.65436 103.31674,12.52906 C102.41474,12.43816 101.52074,12.39686 100.61274,12.39126 Z"/><path fill="#FFF" d="M100.92874,16.70076 C105.16774,16.70076 107.88374,19.28016 107.88374,23.61246 C107.88374,27.94346 105.20574,30.45946 100.88774,30.45946 C96.57084,30.45846 93.93174,27.97796 93.93174,23.67726 C93.93174,19.24566 96.61164,16.70076 100.92874,16.70076 Z M100.61674,13.48116 C92.54684,13.48116 87.24124,17.78186 87.24124,24.01596 C87.24124,27.11996 88.60294,29.81226 91.14694,31.74436 C93.50454,33.55796 96.45254,34.38146 100.21274,34.38146 C104.41374,34.38146 107.73274,33.41066 110.20074,31.42206 C112.33974,29.69386 113.81274,26.88586 113.81274,24.04626 C113.81274,20.97256 112.52274,18.25146 110.31074,16.40746 C107.87974,14.38866 104.78374,13.48116 100.61674,13.48116 Z"/><polygon fill="#231F20" points="133.838 34.486 112.234 34.486 112.234 13.196 120.055 13.196 120.055 29.195 133.838 29.195"/><polygon fill="#FFF" points="132.763 33.4 113.307 33.4 113.307 14.285 118.98 14.285 118.98 30.282 132.763 30.282"/></g></svg>